<svg width="130" height="18" viewBox="0 0 130 18" fill="none" xmlns="http://www.w3.org/2000/svg">
<path d="M9 13.2448L12.9107 12.2343L14.5446 17.3684L9 13.2448ZM18 6.60873H11.1161L9 0L6.88393 6.60873H0L5.57143 10.7051L3.45535 17.3138L9.02679 13.2175L12.4554 10.7051L18 6.60873Z" fill="#FFB400"/>
<path d="M37 13.2448L40.9107 12.2343L42.5446 17.3684L37 13.2448ZM46 6.60873H39.1161L37 0L34.8839 6.60873H28L33.5714 10.7051L31.4554 17.3138L37.0268 13.2175L40.4554 10.7051L46 6.60873Z" fill="#FFB400"/>
<path d="M65 13.2448L68.9107 12.2343L70.5446 17.3684L65 13.2448ZM74 6.60873H67.1161L65 0L62.8839 6.60873H56L61.5714 10.7051L59.4554 17.3138L65.0268 13.2175L68.4554 10.7051L74 6.60873Z" fill="#FFB400"/>
<path d="M93 13.2448L96.9107 12.2343L98.5446 17.3684L93 13.2448ZM102 6.60873H95.1161L93 0L90.8839 6.60873H84L89.5714 10.7051L87.4554 17.3138L93.0268 13.2175L96.4554 10.7051L102 6.60873Z" fill="#FFB400"/>
<path d="M121 13.2448L124.911 12.2343L126.545 17.3684L121 13.2448ZM130 6.60873H123.116L121 0L118.884 6.60873H112L117.571 10.7051L115.455 17.3138L121.027 13.2175L124.455 10.7051L130 6.60873Z" fill="#FFB400"/>
</svg>
