<svg width="12" height="12" viewBox="0 0 12 12" fill="none" xmlns="http://www.w3.org/2000/svg">
<path d="M10.7936 5.74328C10.7444 4.79882 10.4159 3.89022 9.84974 3.13264C9.67724 3.31842 9.49285 3.49279 9.29773 3.65465C8.69828 4.15257 8.0284 4.55898 7.3099 4.86067C7.4101 5.07067 7.5019 5.27407 7.58291 5.46608V5.46788C7.60576 5.52153 7.62777 5.57553 7.64891 5.62988C8.55732 5.52788 9.51493 5.56508 10.4431 5.69048C10.5667 5.70728 10.6831 5.72528 10.7936 5.74328ZM5.16247 1.27322C5.7472 2.09713 6.28642 2.95242 6.77769 3.83525C7.5115 3.54605 8.11811 3.18124 8.60652 2.77504C8.77605 2.63532 8.93564 2.48395 9.08413 2.32203C8.2207 1.59585 7.12828 1.19842 6.00008 1.20002C5.7193 1.19982 5.43904 1.22412 5.16247 1.27262V1.27322ZM1.35182 4.79827C1.76056 4.78795 2.16882 4.76334 2.57584 4.72447C3.55963 4.63647 4.53503 4.47156 5.49308 4.23126C4.99238 3.36137 4.45179 2.51506 3.87305 1.69502C3.25488 2.00127 2.70979 2.43688 2.27478 2.97231C1.83976 3.50775 1.52499 4.13048 1.35182 4.79827ZM2.26983 9.02113C2.50264 8.68092 2.80864 8.29812 3.21485 7.88171C4.08726 6.9877 5.11687 6.29169 6.30849 5.90768L6.34569 5.89688C6.24669 5.67848 6.15369 5.48348 6.06009 5.29987C4.95847 5.62088 3.79805 5.82128 2.64184 5.92508C2.07783 5.97608 1.57202 5.99828 1.20002 6.00188C1.19895 7.10146 1.577 8.16778 2.27043 9.02113H2.26983ZM7.80311 10.4491C7.57173 9.28228 7.24421 8.13656 6.8239 7.0237C5.62268 7.4599 4.66567 8.09771 3.92586 8.85852C3.62729 9.15996 3.36234 9.49291 3.13564 9.85154C3.96294 10.4688 4.96788 10.8016 6.00008 10.8002C6.61804 10.801 7.23032 10.6822 7.80311 10.4503V10.4491ZM8.92693 9.80414C9.8637 9.08398 10.5019 8.04354 10.7191 6.8821C10.5151 6.8311 10.2565 6.7801 9.97214 6.74049C9.33981 6.64944 8.69819 6.64278 8.06411 6.72069C8.42115 7.72801 8.70942 8.75839 8.92693 9.80474V9.80414ZM6.00008 12.0002C2.68624 12.0002 0 9.31393 0 6.00008C0 2.68624 2.68624 0 6.00008 0C9.31393 0 12.0002 2.68624 12.0002 6.00008C12.0002 9.31393 9.31393 12.0002 6.00008 12.0002Z" fill="#2B2B2B"/>
</svg>
