<svg width="25" height="25" viewBox="0 0 25 25" fill="none" xmlns="http://www.w3.org/2000/svg">
<path d="M12.5 25C5.59625 25 0 19.4037 0 12.5C0 5.59625 5.59625 0 12.5 0C19.4037 0 25 5.59625 25 12.5C25 19.4037 19.4037 25 12.5 25ZM4.16125 18.0312C4.98286 19.2605 6.06683 20.2923 7.33513 21.0523C8.60342 21.8123 10.0245 22.2816 11.4959 22.4264C12.9674 22.5712 14.4526 22.3879 15.8448 21.8897C17.2369 21.3915 18.5012 20.5908 19.5466 19.5452C20.5921 18.4997 21.3927 17.2353 21.8908 15.8432C22.3888 14.451 22.572 12.9657 22.4271 11.4943C22.2822 10.0228 21.8127 8.60183 21.0526 7.3336C20.2925 6.06538 19.2606 4.98149 18.0312 4.16C18.5702 6.08278 18.5875 8.1144 18.0814 10.0461C17.5752 11.9778 16.5639 13.7398 15.1513 15.1513C13.74 16.5637 11.9781 17.5749 10.0467 18.081C8.11522 18.5872 6.08385 18.57 4.16125 18.0312Z" fill="#2B2B2B"/>
</svg>
