<svg width="12" height="12" viewBox="0 0 12 12" fill="none" xmlns="http://www.w3.org/2000/svg">
<path d="M6.00008 0C7.63031 0 7.83371 0.00600005 8.47332 0.0360005C9.11233 0.0660009 9.54733 0.166202 9.93014 0.315004C10.3261 0.467407 10.6597 0.673809 10.9934 1.00681C11.2985 1.30676 11.5345 1.66958 11.6852 2.07003C11.8334 2.45223 11.9342 2.88784 11.9642 3.52685C11.9924 4.16646 12.0002 4.36986 12.0002 6.00008C12.0002 7.63031 11.9942 7.83371 11.9642 8.47332C11.9342 9.11233 11.8334 9.54733 11.6852 9.93014C11.535 10.3308 11.2988 10.6937 10.9934 10.9934C10.6933 11.2984 10.3305 11.5344 9.93014 11.6852C9.54793 11.8334 9.11233 11.9342 8.47332 11.9642C7.83371 11.9924 7.63031 12.0002 6.00008 12.0002C4.36986 12.0002 4.16646 11.9942 3.52685 11.9642C2.88784 11.9342 2.45283 11.8334 2.07003 11.6852C1.66942 11.5348 1.30653 11.2987 1.00681 10.9934C0.701654 10.6935 0.465565 10.3306 0.315004 9.93014C0.166202 9.54793 0.0660009 9.11233 0.0360005 8.47332C0.00780008 7.83371 0 7.63031 0 6.00008C0 4.36986 0.00600005 4.16646 0.0360005 3.52685C0.0660009 2.88724 0.166202 2.45283 0.315004 2.07003C0.465148 1.66933 0.701292 1.30641 1.00681 1.00681C1.30662 0.701549 1.66948 0.465444 2.07003 0.315004C2.45283 0.166202 2.88724 0.0660009 3.52685 0.0360005C4.16646 0.00780008 4.36986 0 6.00008 0ZM6.00008 3.00004C5.20442 3.00004 4.44135 3.31612 3.87873 3.87873C3.31612 4.44135 3.00004 5.20442 3.00004 6.00008C3.00004 6.79574 3.31612 7.55882 3.87873 8.12143C4.44135 8.68405 5.20442 9.00013 6.00008 9.00013C6.79574 9.00013 7.55882 8.68405 8.12143 8.12143C8.68405 7.55882 9.00013 6.79574 9.00013 6.00008C9.00013 5.20442 8.68405 4.44135 8.12143 3.87873C7.55882 3.31612 6.79574 3.00004 6.00008 3.00004ZM9.90014 2.85004C9.90014 2.65112 9.82112 2.46036 9.68047 2.3197C9.53981 2.17905 9.34904 2.10003 9.15013 2.10003C8.95121 2.10003 8.76044 2.17905 8.61979 2.3197C8.47914 2.46036 8.40012 2.65112 8.40012 2.85004C8.40012 3.04896 8.47914 3.23972 8.61979 3.38038C8.76044 3.52103 8.95121 3.60005 9.15013 3.60005C9.34904 3.60005 9.53981 3.52103 9.68047 3.38038C9.82112 3.23972 9.90014 3.04896 9.90014 2.85004ZM6.00008 4.20006C6.47748 4.20006 6.93532 4.3897 7.27289 4.72727C7.61046 5.06484 7.80011 5.52269 7.80011 6.00008C7.80011 6.47748 7.61046 6.93532 7.27289 7.27289C6.93532 7.61046 6.47748 7.80011 6.00008 7.80011C5.52269 7.80011 5.06484 7.61046 4.72727 7.27289C4.3897 6.93532 4.20006 6.47748 4.20006 6.00008C4.20006 5.52269 4.3897 5.06484 4.72727 4.72727C5.06484 4.3897 5.52269 4.20006 6.00008 4.20006Z" fill="#2B2B2B"/>
</svg>
