<svg width="17" height="18" viewBox="0 0 17 18" fill="none" xmlns="http://www.w3.org/2000/svg">
<path d="M16.5 4.28699V4.5H11V0H11.2603C11.5338 0 11.7962 0.0889101 11.9896 0.247113L16.198 3.69035C16.3913 3.8486 16.5 4.06321 16.5 4.28699ZM10.6562 5.625C10.0891 5.625 9.625 5.24531 9.625 4.78125V0H1.03125C0.461699 0 0 0.377754 0 0.84375V17.1562C0 17.6222 0.461699 18 1.03125 18H15.4688C16.0383 18 16.5 17.6222 16.5 17.1562V5.625H10.6562ZM5.29401 14.0803C5.27317 14.0984 5.24815 14.1131 5.22039 14.1234C5.19263 14.1337 5.16266 14.1394 5.13221 14.1402C5.10175 14.141 5.0714 14.1368 5.04289 14.1281C5.01437 14.1193 4.98826 14.106 4.96603 14.0889L2.17882 11.951C2.15567 11.9332 2.13722 11.9118 2.1246 11.888C2.11199 11.8641 2.10548 11.8384 2.10548 11.8125C2.10548 11.7865 2.11199 11.7608 2.1246 11.737C2.13722 11.7132 2.15567 11.6917 2.17882 11.674L4.96603 9.53606C4.98826 9.51901 5.01437 9.50571 5.04289 9.49691C5.0714 9.48812 5.10175 9.484 5.13221 9.48481C5.16266 9.48561 5.19263 9.49131 5.22039 9.50159C5.24815 9.51187 5.27317 9.52652 5.29401 9.54471L6.13529 10.2789C6.15655 10.2975 6.17304 10.3194 6.18377 10.3432C6.19451 10.3671 6.19927 10.3925 6.19778 10.4179C6.19629 10.4433 6.18858 10.4682 6.1751 10.4911C6.16161 10.514 6.14264 10.5345 6.11931 10.5513L4.36777 11.8125L6.11931 13.0737C6.14264 13.0905 6.16161 13.111 6.1751 13.1339C6.18858 13.1568 6.19629 13.1817 6.19778 13.2071C6.19927 13.2325 6.19451 13.2579 6.18377 13.2818C6.17304 13.3056 6.15655 13.3275 6.13529 13.3461L5.29401 14.0803ZM7.49809 15.8549L6.31847 15.5747C6.25937 15.5607 6.20951 15.528 6.17985 15.4839C6.15019 15.4398 6.14316 15.3878 6.1603 15.3394L8.8003 7.89947C8.81747 7.85112 8.85741 7.81032 8.91133 7.78606C8.96525 7.76179 9.02874 7.75603 9.08785 7.77006L10.2674 8.05025C10.2967 8.05721 10.324 8.06881 10.3478 8.08439C10.3716 8.09998 10.3914 8.11924 10.406 8.14109C10.4207 8.16294 10.43 8.18694 10.4334 8.21172C10.4367 8.2365 10.434 8.26158 10.4256 8.28552L7.78555 15.7255C7.77707 15.7494 7.76291 15.7718 7.74387 15.7913C7.72483 15.8107 7.70129 15.8269 7.6746 15.8389C7.6479 15.851 7.61857 15.8586 7.58829 15.8613C7.558 15.864 7.52735 15.8619 7.49809 15.8549ZM14.4071 11.951L11.6199 14.0889C11.5977 14.106 11.5716 14.1193 11.5431 14.1281C11.5145 14.1368 11.4842 14.141 11.4537 14.1402C11.4233 14.1394 11.3933 14.1337 11.3655 14.1234C11.3378 14.1131 11.3128 14.0984 11.2919 14.0803L10.4506 13.346C10.4293 13.3275 10.4129 13.3056 10.4021 13.2817C10.3914 13.2579 10.3866 13.2325 10.3881 13.2071C10.3896 13.1817 10.3973 13.1568 10.4108 13.1338C10.4243 13.1109 10.4433 13.0905 10.4666 13.0737L12.2182 11.8125L10.4666 10.5513C10.4433 10.5345 10.4243 10.514 10.4108 10.4911C10.3974 10.4682 10.3896 10.4433 10.3882 10.4179C10.3867 10.3925 10.3914 10.3671 10.4022 10.3432C10.4129 10.3194 10.4294 10.2975 10.4506 10.2789L11.292 9.54471C11.3128 9.52652 11.3378 9.51187 11.3656 9.50159C11.3934 9.49131 11.4233 9.48561 11.4538 9.48481C11.4842 9.484 11.5146 9.48812 11.5431 9.49691C11.5716 9.50571 11.5977 9.51901 11.62 9.53606L14.4072 11.674C14.4303 11.6917 14.4488 11.7132 14.4614 11.737C14.474 11.7608 14.4805 11.7865 14.4805 11.8125C14.4805 11.8385 14.474 11.8641 14.4613 11.888C14.4487 11.9118 14.4303 11.9332 14.4071 11.951Z" fill="#767676"/>
</svg>
