<svg width="17" height="18" viewBox="0 0 17 18" fill="none" xmlns="http://www.w3.org/2000/svg">
<path d="M11.763 11.2714L8.24955 14.6251L4.73613 11.2714C2.1029 11.3804 0 13.4369 0 15.975V16.3125C0 17.2441 0.79181 17.9999 1.76776 17.9999H14.7313C15.7073 17.9999 16.4991 17.2441 16.4991 16.3125V15.975C16.4991 13.4369 14.3962 11.3804 11.763 11.2714ZM0.500866 2.8062L0.736567 2.85893V4.91195C0.478769 5.05959 0.294627 5.31622 0.294627 5.62558C0.294627 5.92088 0.464037 6.16696 0.703422 6.31812L0.128899 8.50824C0.066291 8.75081 0.206239 9.0004 0.408795 9.0004H1.94822C2.15078 9.0004 2.29072 8.75081 2.22812 8.50824L1.65359 6.31812C1.89298 6.16696 2.06239 5.92088 2.06239 5.62558C2.06239 5.31622 1.87825 5.05959 1.62045 4.91195V3.06283L4.05112 3.62178C3.7344 4.22644 3.53552 4.9014 3.53552 5.62558C3.53552 8.11099 5.64579 10.1253 8.24955 10.1253C10.8533 10.1253 12.9636 8.11099 12.9636 5.62558C12.9636 4.9014 12.7684 4.22644 12.448 3.62178L15.9946 2.8062C16.6648 2.65152 16.6648 1.85351 15.9946 1.69884L8.98244 0.0817339C8.50367 -0.0272447 7.99912 -0.0272447 7.52035 0.0817339L0.500866 1.69532C-0.165728 1.85 -0.165728 2.65152 0.500866 2.8062Z" fill="#767676"/>
</svg>
