<svg width="11" height="15" viewBox="0 0 11 15" fill="none" xmlns="http://www.w3.org/2000/svg">
<path d="M0.75 0H9.75C9.94891 0 10.1397 0.0790176 10.2803 0.21967C10.421 0.360322 10.5 0.551088 10.5 0.75V14.25C10.5 14.4489 10.421 14.6397 10.2803 14.7803C10.1397 14.921 9.94891 15 9.75 15H0.75C0.551088 15 0.360322 14.921 0.21967 14.7803C0.0790178 14.6397 0 14.4489 0 14.25V0.75C0 0.551088 0.0790178 0.360322 0.21967 0.21967C0.360322 0.0790176 0.551088 0 0.75 0ZM5.25 11.25C5.05109 11.25 4.86032 11.329 4.71967 11.4697C4.57902 11.6103 4.5 11.8011 4.5 12C4.5 12.1989 4.57902 12.3897 4.71967 12.5303C4.86032 12.671 5.05109 12.75 5.25 12.75C5.44891 12.75 5.63968 12.671 5.78033 12.5303C5.92098 12.3897 6 12.1989 6 12C6 11.8011 5.92098 11.6103 5.78033 11.4697C5.63968 11.329 5.44891 11.25 5.25 11.25Z" fill="#2B2B2B"/>
</svg>
