<svg width="12" height="11" viewBox="0 0 12 11" fill="none" xmlns="http://www.w3.org/2000/svg">
<path d="M2.44433 1.22278C2.44417 1.54692 2.31525 1.85771 2.08593 2.0868C1.85662 2.31589 1.54569 2.44449 1.22155 2.44433C0.897416 2.44417 0.586618 2.31525 0.357532 2.08594C0.128446 1.85662 -0.000161916 1.54569 1.52992e-07 1.22155C0.000162222 0.897416 0.129081 0.586618 0.358396 0.357532C0.587711 0.128446 0.898638 -0.000161916 1.22278 1.52992e-07C1.54691 0.000162222 1.85771 0.129081 2.0868 0.358396C2.31589 0.587711 2.44449 0.898638 2.44433 1.22278ZM2.481 3.34934H0.0366651V11.0001H2.481V3.34934ZM6.34304 3.34934H3.91093V11.0001H6.3186V6.98529C6.3186 4.74872 9.23346 4.54096 9.23346 6.98529V11.0001H11.6472V6.15421C11.6472 2.38383 7.33299 2.52438 6.3186 4.37596L6.34304 3.34934Z" fill="#2B2B2B"/>
</svg>
