<svg width="68" height="67" viewBox="0 0 68 67" fill="none" xmlns="http://www.w3.org/2000/svg">
<path d="M31.6094 48.7402C31.0591 48.7402 30.6133 49.1862 30.6133 49.7363C30.6133 50.2864 31.0591 50.7324 31.6094 50.7324H36.3906C36.9409 50.7324 37.3867 50.2864 37.3867 49.7363C37.3867 49.1862 36.9409 48.7402 36.3906 48.7402H31.6094Z" fill="#FFB400"/>
<path d="M11.9531 33.2734H18.5374C18.9396 34.3201 19.9528 35.0664 21.1394 35.0664C22.3259 35.0664 23.3391 34.3201 23.7413 33.2734H25.0573C25.6076 33.2734 26.0534 32.8275 26.0534 32.2773C26.0534 31.7272 25.6076 31.2813 25.0573 31.2813H23.7413C23.3391 30.2346 22.3259 29.4883 21.1394 29.4883C19.9528 29.4883 18.9396 30.2346 18.5374 31.2813H11.9531C11.4029 31.2813 10.957 31.7272 10.957 32.2773C10.957 32.8275 11.4029 33.2734 11.9531 33.2734ZM21.1394 31.4805C21.5788 31.4805 21.9362 31.8379 21.9362 32.2773C21.9362 32.7168 21.5788 33.0742 21.1394 33.0742C20.6999 33.0742 20.3425 32.7168 20.3425 32.2773C20.3425 31.8379 20.6999 31.4805 21.1394 31.4805Z" fill="#FFB400"/>
<path d="M11.9531 27.5625H13.2249C13.6271 28.6092 14.6403 29.3555 15.8269 29.3555C17.0134 29.3555 18.0266 28.6092 18.4288 27.5625H25.0573C25.6076 27.5625 26.0534 27.1165 26.0534 26.5664C26.0534 26.0163 25.6076 25.5703 25.0573 25.5703H18.4288C18.0266 24.5236 17.0134 23.7773 15.8269 23.7773C14.6403 23.7773 13.6271 24.5236 13.2249 25.5703H11.9531C11.4029 25.5703 10.957 26.0163 10.957 26.5664C10.957 27.1165 11.4029 27.5625 11.9531 27.5625ZM15.8269 25.7695C16.2663 25.7695 16.6237 26.1269 16.6237 26.5664C16.6237 27.0059 16.2663 27.3633 15.8269 27.3633C15.3874 27.3633 15.03 27.0059 15.03 26.5664C15.03 26.1269 15.3874 25.7695 15.8269 25.7695Z" fill="#FFB400"/>
<path d="M25.2563 18.3984C25.8065 18.3984 26.2524 17.9525 26.2524 17.4023C26.2524 16.8522 25.8065 16.4062 25.2563 16.4062C24.7062 16.4062 24.2603 16.8522 24.2603 17.4023C24.2603 17.9525 24.7062 18.3984 25.2563 18.3984Z" fill="#FFB400"/>
<path d="M22.5117 18.3984C23.0618 18.3984 23.5078 17.9525 23.5078 17.4023C23.5078 16.8522 23.0618 16.4062 22.5117 16.4062C21.9616 16.4062 21.5156 16.8522 21.5156 17.4023C21.5156 17.9525 21.9616 18.3984 22.5117 18.3984Z" fill="#FFB400"/>
<path d="M19.7671 18.3984C20.3172 18.3984 20.7632 17.9525 20.7632 17.4023C20.7632 16.8522 20.3172 16.4062 19.7671 16.4062C19.217 16.4062 18.771 16.8522 18.771 17.4023C18.771 17.9525 19.217 18.3984 19.7671 18.3984Z" fill="#FFB400"/>
<path d="M65.0117 6.10665H64.6386L64.9169 5.82841C65.7503 4.99501 65.7503 3.63886 64.9169 2.80546L62.7364 0.624949C61.903 -0.208316 60.547 -0.208316 59.7134 0.624949L54.2321 6.10652H2.98828C1.34061 6.10652 0 7.447 0 9.0948V50.4611C0 52.4751 1.63838 54.1135 3.65234 54.1135H27.2458V61.1598H22.4453C21.1638 61.1598 20.1211 62.2025 20.1211 63.484V64.4793C20.1211 65.7608 21.1638 66.8036 22.4453 66.8036H45.5547C46.8362 66.8036 47.8789 65.7608 47.8789 64.4793V63.484C47.8789 62.2025 46.8362 61.1598 45.5547 61.1598H40.7542V54.1135H51.3984C51.9487 54.1135 52.3945 53.6675 52.3945 53.1174C52.3945 52.5672 51.9487 52.1213 51.3984 52.1213H3.65234C2.73687 52.1213 1.99219 51.3766 1.99219 50.4611V47.5127H66.0078V50.4611C66.0078 51.3766 65.2631 52.1213 64.3477 52.1213H56.0469C55.4966 52.1213 55.0508 52.5672 55.0508 53.1174C55.0508 53.6675 55.4966 54.1135 56.0469 54.1135H64.3477C66.3616 54.1135 68 52.4751 68 50.4611V9.09493C68 7.44726 66.6594 6.10665 65.0117 6.10665ZM45.5547 63.1521C45.7378 63.1521 45.8867 63.3012 45.8867 63.4842V64.4795C45.8867 64.6625 45.7378 64.8115 45.5547 64.8115H22.4453C22.2622 64.8115 22.1133 64.6625 22.1133 64.4795V63.4842C22.1133 63.3012 22.2622 63.1521 22.4453 63.1521H45.5547ZM29.238 54.1137H38.7621V61.1601H29.238V54.1137ZM61.1222 2.03382C61.179 1.97711 61.2712 1.97725 61.3278 2.03382L63.5081 4.21421C63.5649 4.27092 63.5649 4.36322 63.5081 4.4198L61.4276 6.50031L59.0417 4.11433L61.1222 2.03382ZM57.6329 5.52307L60.0188 7.90905L59.324 8.60379L56.9382 6.21782L57.6329 5.52307ZM55.5294 7.62656L57.9154 10.0125L46.1282 21.7998L43.7422 19.4138L55.5294 7.62656ZM54.0547 16.7334C55.4095 16.7334 56.5117 17.8356 56.5117 19.1904C56.5117 20.5452 55.4095 21.6474 54.0547 21.6474C52.6999 21.6474 51.5977 20.5452 51.5977 19.1904C51.5977 19.1746 51.5998 19.1593 51.6 19.1435L54.0082 16.7358C54.0237 16.7355 54.039 16.7334 54.0547 16.7334ZM44.3984 22.8875L41.4504 24.0916L42.6545 21.1435L44.3984 22.8875ZM66.0078 45.5207H1.99219V9.09493C1.99219 8.54575 2.43897 8.09884 2.98828 8.09884H52.2401L50.7212 9.61768H16.8672C16.3169 9.61768 15.8711 10.0637 15.8711 10.6138C15.8711 11.1639 16.3169 11.6099 16.8672 11.6099H48.7292L41.7033 18.6362C41.5047 18.8365 41.3494 19.0702 41.2425 19.3319L39.0175 24.7793C38.8134 25.2796 38.9284 25.8498 39.3105 26.2317C39.567 26.4882 39.908 26.6242 40.2559 26.6242C40.4264 26.6242 40.5984 26.5915 40.7629 26.5244L46.2103 24.2996C46.4645 24.1957 46.6918 24.0454 46.8884 23.8548L49.9186 20.8249C50.5714 22.4717 52.1784 23.6398 54.0548 23.6398C56.5081 23.6398 58.504 21.6439 58.504 19.1905C58.504 17.3144 57.3362 15.7075 55.6897 15.0546L59.1348 11.61H62.4968V42.0098H61.9688L58.359 35.7574C58.0841 35.2809 57.4745 35.1177 56.9983 35.3929C56.5219 35.6679 56.3587 36.2771 56.6338 36.7535L59.6685 42.0098H45.7538L44.2614 39.4249L51.2187 27.3744L54.3094 32.7279C54.5846 33.2043 55.1938 33.3676 55.6701 33.0924C56.1465 32.8174 56.3097 32.2082 56.0347 31.7318L52.7373 26.0207C52.4203 25.4716 51.8527 25.1439 51.2186 25.1439C50.5846 25.1439 50.0168 25.4716 49.6998 26.0207L43.1109 37.4329L34.6569 22.7902C34.3399 22.2411 33.7722 21.9133 33.138 21.9133C32.5041 21.9133 31.9364 22.2411 31.6193 22.7902L29.3733 26.6804V16.0032C29.3733 14.7217 28.3306 13.679 27.0491 13.679H9.96094C8.67943 13.679 7.63672 14.7217 7.63672 16.0032V37.7844C7.63672 38.6999 8.3814 39.4446 9.29688 39.4446H22.0042L20.5231 42.01H5.50335V11.6099H12.2188C12.769 11.6099 13.2148 11.1639 13.2148 10.6138C13.2148 10.0637 12.769 9.61768 12.2188 9.61768H5.17132C4.25584 9.61768 3.51116 10.3624 3.51116 11.2778V42.3418C3.51116 43.2572 4.25584 44.0019 5.17132 44.0019H62.8288C63.7443 44.0019 64.489 43.2572 64.489 42.3418V11.2778C64.489 10.3624 63.7443 9.61768 62.8288 9.61768H61.1272L62.6463 8.09884H65.0117C65.561 8.09884 66.0078 8.54575 66.0078 9.09493V45.5207ZM27.3816 21.5197V37.4521H9.62891V21.5197H27.3816ZM9.62891 19.5275V16.0029C9.62891 15.8199 9.77779 15.6709 9.96094 15.6709H27.0495C27.2327 15.6709 27.3816 15.8199 27.3816 16.0029V19.5275H9.62891ZM24.3047 39.4443H27.7136C28.6291 39.4443 29.3737 38.6996 29.3737 37.7842V35.6742C29.6229 35.7937 29.9003 35.8584 30.1909 35.8584C30.8709 35.8584 31.4797 35.5067 31.8196 34.9179L33.5148 31.9818C33.5661 31.8931 33.6445 31.8744 33.7009 31.8744C33.7576 31.8744 33.836 31.8931 33.8871 31.9818L34.9322 33.7919C35.2722 34.381 35.8812 34.7325 36.5613 34.7325C37.2413 34.7325 37.8502 34.381 38.1901 33.7921L38.4496 33.3426L43.4535 42.0096H22.8236L24.3047 39.4443ZM29.3737 32.3398V30.6645L33.1386 24.1438L37.2993 31.3505L36.5612 32.6289L35.6123 30.9856C35.2134 30.2946 34.4988 29.8821 33.7008 29.8821C32.9028 29.8821 32.1883 30.2946 31.7893 30.9856L30.1905 33.7548L29.3737 32.3398Z" fill="#FFB400"/>
</svg>
