<svg width="12" height="10" viewBox="0 0 12 10" fill="none" xmlns="http://www.w3.org/2000/svg">
<path d="M11.726 1.49882C12.0002 2.56804 12.0002 4.80007 12.0002 4.80007C12.0002 4.80007 12.0002 7.0321 11.726 8.10131C11.5736 8.69232 11.1278 9.15733 10.5631 9.31453C9.53773 9.60013 6.00008 9.60013 6.00008 9.60013C6.00008 9.60013 2.46423 9.60013 1.43702 9.31453C0.870012 9.15493 0.424806 8.69052 0.274204 8.10131C1.78816e-08 7.0321 0 4.80007 0 4.80007C0 4.80007 1.78816e-08 2.56804 0.274204 1.49882C0.426606 0.907813 0.872412 0.442806 1.43702 0.285604C2.46423 -1.0729e-07 6.00008 0 6.00008 0C6.00008 0 9.53773 -1.0729e-07 10.5631 0.285604C11.1302 0.445206 11.5754 0.909613 11.726 1.49882ZM4.80007 6.9001L8.40012 4.80007L4.80007 2.70004V6.9001Z" fill="#2B2B2B"/>
</svg>
