<svg width="12" height="10" viewBox="0 0 12 10" fill="none" xmlns="http://www.w3.org/2000/svg">
<path d="M11.9995 1.15824C11.55 1.35704 11.0734 1.4876 10.5854 1.5456C11.0998 1.23797 11.4848 0.753808 11.6686 0.18335C11.1859 0.470635 10.6566 0.671971 10.105 0.78088C9.7345 0.384438 9.24338 0.121515 8.70801 0.0329876C8.17265 -0.05554 7.62303 0.0352872 7.14461 0.291349C6.66619 0.547411 6.28577 0.95436 6.06249 1.44893C5.83921 1.9435 5.78559 2.49799 5.90995 3.02618C4.93101 2.97711 3.97333 2.72272 3.09908 2.27951C2.22484 1.8363 1.45357 1.21419 0.835364 0.453563C0.616539 0.829418 0.501545 1.25668 0.50216 1.6916C0.50216 2.54521 0.93662 3.29933 1.59714 3.74086C1.20625 3.72855 0.823962 3.62299 0.482145 3.43297V3.46358C0.482263 4.03209 0.678987 4.58306 1.03896 5.02308C1.39894 5.4631 1.90002 5.76509 2.45723 5.87784C2.09436 5.97617 1.71388 5.99067 1.34459 5.92022C1.50169 6.40957 1.8079 6.83753 2.22033 7.14419C2.63277 7.45085 3.13078 7.62085 3.64464 7.63039C3.13393 8.03149 2.54917 8.32799 1.9238 8.50295C1.29843 8.6779 0.644701 8.72788 0 8.65002C1.12541 9.37379 2.43551 9.75802 3.77356 9.75677C8.30242 9.75677 10.7791 6.005 10.7791 2.75126C10.7791 2.64529 10.7761 2.53815 10.7714 2.43336C11.2535 2.08495 11.6695 1.65334 12 1.15882L11.9995 1.15824Z" fill="#2B2B2B"/>
</svg>
