<svg width="66" height="54" viewBox="0 0 66 54" fill="none" xmlns="http://www.w3.org/2000/svg">
<path d="M62.2742 0H3.72581C2.738 0.00109183 1.79096 0.393982 1.09247 1.09247C0.393982 1.79096 0.00109183 2.738 0 3.72581V40.9839C0.00109183 41.9717 0.393982 42.9187 1.09247 43.6172C1.79096 44.3157 2.738 44.7086 3.72581 44.7097H25.0401L23.7627 47.9032H18.0968C17.8144 47.9032 17.5437 48.0154 17.344 48.215C17.1444 48.4147 17.0323 48.6854 17.0323 48.9677V51.0968H10.6452C10.3628 51.0968 10.0921 51.2089 9.89243 51.4086C9.6928 51.6082 9.58065 51.879 9.58065 52.1613C9.58065 52.4436 9.6928 52.7144 9.89243 52.914C10.0921 53.1137 10.3628 53.2258 10.6452 53.2258H55.3548C55.6372 53.2258 55.9079 53.1137 56.1076 52.914C56.3072 52.7144 56.4194 52.4436 56.4194 52.1613C56.4194 51.879 56.3072 51.6082 56.1076 51.4086C55.9079 51.2089 55.6372 51.0968 55.3548 51.0968H48.9677V48.9677C48.9677 48.6854 48.8556 48.4147 48.656 48.215C48.4563 48.0154 48.1856 47.9032 47.9032 47.9032H42.2373L40.9599 44.7097H62.2742C63.262 44.7086 64.209 44.3157 64.9075 43.6172C65.606 42.9187 65.9989 41.9717 66 40.9839V3.72581C65.9989 2.738 65.606 1.79096 64.9075 1.09247C64.209 0.393982 63.262 0.00109183 62.2742 0ZM46.8387 50.0323V51.0968H19.1613V50.0323H46.8387ZM26.0567 47.9032L27.3341 44.7097H38.6659L39.9433 47.9032H26.0567ZM63.871 40.9839C63.8706 41.4073 63.7023 41.8132 63.4029 42.1126C63.1035 42.4119 62.6976 42.5803 62.2742 42.5806H3.72581C3.30242 42.5803 2.89648 42.4119 2.59711 42.1126C2.29773 41.8132 2.12938 41.4073 2.12903 40.9839V38.3226H63.871V40.9839ZM63.871 36.1935H2.12903V3.72581C2.12938 3.30242 2.29773 2.89648 2.59711 2.59711C2.89648 2.29773 3.30242 2.12938 3.72581 2.12903H62.2742C62.6976 2.12938 63.1035 2.29773 63.4029 2.59711C63.7023 2.89648 63.8706 3.30242 63.871 3.72581V36.1935Z" fill="#FFB400"/>
<path d="M28.1579 27.5026C28.2748 27.5793 28.4057 27.6323 28.543 27.6584C28.6803 27.6845 28.8215 27.6833 28.9584 27.6549C29.0952 27.6265 29.2252 27.5714 29.3408 27.4928C29.4564 27.4141 29.5553 27.3135 29.632 27.1966L38.0151 14.4224C38.17 14.1864 38.2248 13.8985 38.1675 13.622C38.1101 13.3456 37.9453 13.1032 37.7093 12.9483C37.4733 12.7934 37.1854 12.7386 36.9089 12.7959C36.6325 12.8532 36.3901 13.0181 36.2352 13.2541L27.8521 26.0283C27.7754 26.1452 27.7224 26.276 27.6962 26.4134C27.6701 26.5507 27.6712 26.6919 27.6996 26.8288C27.728 26.9657 27.7831 27.0957 27.8617 27.2113C27.9404 27.3269 28.041 27.4259 28.1579 27.5026Z" fill="#FFB400"/>
<path d="M39.7701 27.4309C39.987 27.6117 40.2668 27.6988 40.548 27.6732C40.8292 27.6477 41.0886 27.5114 41.2694 27.2946L46.5919 20.9075C46.7513 20.7162 46.8386 20.475 46.8386 20.226C46.8386 19.977 46.7513 19.7359 46.5919 19.5446L41.2694 13.1575C41.1802 13.0492 41.0704 12.9596 40.9465 12.8939C40.8225 12.8281 40.6868 12.7876 40.5471 12.7744C40.4074 12.7613 40.2666 12.776 40.1325 12.8175C39.9985 12.859 39.8741 12.9267 39.7663 13.0165C39.6585 13.1063 39.5695 13.2165 39.5045 13.3408C39.4394 13.4652 39.3996 13.6011 39.3873 13.7409C39.375 13.8806 39.3904 14.0214 39.4327 14.1552C39.475 14.289 39.5433 14.4131 39.6337 14.5204L44.3884 20.226L39.6337 25.9317C39.453 26.1486 39.3659 26.4284 39.3914 26.7096C39.417 26.9907 39.5532 27.2502 39.7701 27.4309Z" fill="#FFB400"/>
<path d="M24.7306 27.2945C24.8198 27.4028 24.9295 27.4924 25.0534 27.5582C25.1774 27.6239 25.3131 27.6645 25.4528 27.6776C25.5925 27.6907 25.7334 27.6761 25.8674 27.6345C26.0014 27.593 26.1259 27.5254 26.2336 27.4356C26.3414 27.3458 26.4304 27.2355 26.4954 27.1112C26.5605 26.9869 26.6003 26.8509 26.6126 26.7112C26.6249 26.5714 26.6095 26.4306 26.5672 26.2968C26.5249 26.1631 26.4566 26.039 26.3662 25.9317L21.6115 20.226L26.3662 14.5204C26.4566 14.4131 26.5249 14.289 26.5672 14.1552C26.6095 14.0214 26.6249 13.8806 26.6126 13.7409C26.6003 13.6011 26.5605 13.4652 26.4954 13.3408C26.4304 13.2165 26.3414 13.1063 26.2336 13.0165C26.1259 12.9267 26.0014 12.859 25.8674 12.8175C25.7334 12.776 25.5925 12.7613 25.4528 12.7744C25.3131 12.7876 25.1774 12.8281 25.0534 12.8939C24.9295 12.9596 24.8198 13.0492 24.7306 13.1575L19.408 19.5446C19.2486 19.7359 19.1613 19.977 19.1613 20.226C19.1613 20.475 19.2486 20.7161 19.408 20.9074L24.7306 27.2945Z" fill="#FFB400"/>
</svg>
