<svg width="15" height="15" viewBox="0 0 15 15" fill="none" xmlns="http://www.w3.org/2000/svg">
<path d="M1.48463e-07 2.25L5.25 0L9.75 2.25L14.4772 0.22425C14.5343 0.199788 14.5966 0.189877 14.6584 0.195407C14.7202 0.200937 14.7797 0.221735 14.8316 0.255934C14.8834 0.290133 14.9259 0.336663 14.9553 0.391348C14.9847 0.446034 15.0001 0.507163 15 0.56925V12.75L9.75 15L5.25 12.75L0.52275 14.7758C0.465685 14.8002 0.40344 14.8101 0.341599 14.8046C0.279759 14.7991 0.220259 14.7783 0.16844 14.7441C0.116621 14.7099 0.0741043 14.6633 0.0447052 14.6087C0.0153061 14.554 -5.50922e-05 14.4928 1.48463e-07 14.4307V2.25ZM9.75 13.323V3.882L9.70125 3.903L5.25 1.677V11.118L5.29875 11.097L9.75 13.323Z" fill="#2B2B2B"/>
</svg>
