<svg width="74" height="74" viewBox="0 0 74 74" fill="none" xmlns="http://www.w3.org/2000/svg">
<path d="M32.375 38.1562H41.625V40.4688H32.375V38.1562Z" fill="#FFB400"/>
<path d="M35.8438 34.6875H38.1562V43.9375H35.8438V34.6875Z" fill="#FFB400"/>
<path d="M65.9062 38.1562H68.2188V40.4688H65.9062V38.1562Z" fill="#FFB400"/>
<path d="M56.6562 38.1562H58.9688V40.4688H56.6562V38.1562Z" fill="#FFB400"/>
<path d="M61.2812 33.5312H63.5938V35.8438H61.2812V33.5312Z" fill="#FFB400"/>
<path d="M61.2812 42.7812H63.5938V45.0938H61.2812V42.7812Z" fill="#FFB400"/>
<path d="M10.6597 20.3789L5.45654 13.875L10.6597 7.37109L12.4652 8.81641L8.4183 13.875L12.4652 18.9336L10.6597 20.3789Z" fill="#FFB400"/>
<path d="M28.6527 20.3789L26.8472 18.9336L30.8952 13.875L26.8472 8.81641L28.6527 7.37109L33.8547 13.875L28.6527 20.3789Z" fill="#FFB400"/>
<path d="M14.7378 17.7375L22.8338 8.48975L24.5738 10.0124L16.4778 19.2607L14.7378 17.7375Z" fill="#FFB400"/>
<path d="M9.25 50.875H4.625V46.25H6.9375V48.5625H9.25V50.875Z" fill="#FFB400"/>
<path d="M70.5312 2.3125H3.46875C1.55315 2.3125 0 3.86565 0 5.78125V52.0312C0 53.9469 1.55315 55.5 3.46875 55.5H27.75V61.2812C27.75 63.1969 26.1969 64.75 24.2812 64.75H18.5V71.6875H55.5V64.75H49.7188C47.8031 64.75 46.25 63.1969 46.25 61.2812V55.5H70.5312C72.4469 55.5 74 53.9469 74 52.0312V5.78125C74 3.86565 72.4469 2.3125 70.5312 2.3125ZM53.1875 67.0625V69.375H20.8125V67.0625H53.1875ZM37 62.4861C38.9156 62.4861 40.4688 60.9329 40.4688 59.0173V55.5H43.9375V61.2812C43.942 62.5363 44.3587 63.7552 45.1237 64.75H28.8763C29.6413 63.7552 30.058 62.5363 30.0625 61.2812V55.5H33.5312V59.0173C33.5312 60.9329 35.0844 62.4861 37 62.4861ZM35.8438 59.0173V55.5H38.1562V59.0173C38.1562 59.6558 37.6385 60.1736 37 60.1736C36.3615 60.1736 35.8438 59.6558 35.8438 59.0173ZM71.6875 52.0312C71.6875 52.6698 71.1698 53.1875 70.5312 53.1875H3.46875C2.83022 53.1875 2.3125 52.6698 2.3125 52.0312V41.625H25.669C26.6265 46.3319 30.3956 49.9553 35.1369 50.726C39.8776 51.4972 44.6009 49.2547 47.0003 45.0938H52.4349C54.3725 48.4626 57.8774 50.6288 61.7572 50.8558C65.6369 51.0828 69.3699 49.3399 71.6875 46.2201V52.0312ZM62.4375 48.5625C58.923 48.571 55.7112 46.5758 54.1608 43.422L53.8407 42.7812H45.5968L45.2767 43.422C43.2487 47.5107 38.5419 49.5099 34.1918 48.1295C29.8412 46.7485 27.1482 42.4019 27.8494 37.8915C28.55 33.3816 32.436 30.0574 37 30.0625H62.4375C67.5463 30.0625 71.6875 34.2037 71.6875 39.3125C71.6875 44.4213 67.5463 48.5625 62.4375 48.5625ZM71.6875 32.4049C69.5128 29.4793 66.083 27.7534 62.4375 27.75H37C30.6169 27.7568 25.4443 32.9294 25.4375 39.3125H2.3125V5.78125C2.3125 5.14272 2.83022 4.625 3.46875 4.625H70.5312C71.1698 4.625 71.6875 5.14272 71.6875 5.78125V32.4049Z" fill="#FFB400"/>
<path d="M47.4062 38.1562H52.0312V40.4688H47.4062V38.1562Z" fill="#FFB400"/>
<path d="M34.6875 9.25H43.9375V11.5625H34.6875V9.25Z" fill="#FFB400"/>
<path d="M48.5625 9.25H67.0625V11.5625H48.5625V9.25Z" fill="#FFB400"/>
<path d="M50.875 13.875H67.0625V16.1875H50.875V13.875Z" fill="#FFB400"/>
<path d="M37 13.875H46.25V16.1875H37V13.875Z" fill="#FFB400"/>
<path d="M34.6875 18.5H57.8125V20.8125H34.6875V18.5Z" fill="#FFB400"/>
<path d="M62.4375 18.5H67.0625V20.8125H62.4375V18.5Z" fill="#FFB400"/>
<path d="M6.9375 23.125H18.5V25.4375H6.9375V23.125Z" fill="#FFB400"/>
<path d="M23.125 23.125H45.0938V25.4375H23.125V23.125Z" fill="#FFB400"/>
<path d="M48.5625 23.125H67.0625V25.4375H48.5625V23.125Z" fill="#FFB400"/>
<path d="M6.9375 27.75H25.4375V30.0625H6.9375V27.75Z" fill="#FFB400"/>
<path d="M6.9375 32.375H16.1875V34.6875H6.9375V32.375Z" fill="#FFB400"/>
<path d="M18.5 32.375H23.125V34.6875H18.5V32.375Z" fill="#FFB400"/>
</svg>
