<svg width="15" height="15" viewBox="0 0 15 15" fill="none" xmlns="http://www.w3.org/2000/svg">
<path d="M5.25 9V11.25H9.75V9H15V14.25C15 14.4489 14.921 14.6397 14.7803 14.7803C14.6397 14.921 14.4489 15 14.25 15H0.75C0.551088 15 0.360322 14.921 0.21967 14.7803C0.0790176 14.6397 0 14.4489 0 14.25V9H5.25ZM6.75 7.5H8.25V9.75H6.75V7.5ZM3.75 3V0.75C3.75 0.551088 3.82902 0.360322 3.96967 0.21967C4.11032 0.0790176 4.30109 0 4.5 0H10.5C10.6989 0 10.8897 0.0790176 11.0303 0.21967C11.171 0.360322 11.25 0.551088 11.25 0.75V3H14.25C14.4489 3 14.6397 3.07902 14.7803 3.21967C14.921 3.36032 15 3.55109 15 3.75V7.5H9.75V6H5.25V7.5H0V3.75C0 3.55109 0.0790176 3.36032 0.21967 3.21967C0.360322 3.07902 0.551088 3 0.75 3H3.75ZM5.25 1.5V3H9.75V1.5H5.25Z" fill="#767676"/>
</svg>
